<?xml version="1.0" standalone="no"?>
<!DOCTYPE svg PUBLIC "-//W3C//DTD SVG 20010904//EN"
 "http://www.w3.org/TR/2001/REC-SVG-20010904/DTD/svg10.dtd">
<svg version="1.0" xmlns="http://www.w3.org/2000/svg"
 width="1490.000000pt" height="453.000000pt" viewBox="0 0 1490.000000 453.000000"
 preserveAspectRatio="xMidYMid meet">

<g transform="translate(0.000000,453.000000) scale(0.100000,-0.100000)"
fill="#000000" stroke="none">
<path d="M3150 3720 l0 -180 68 0 c95 0 140 -15 188 -64 70 -69 85 -172 60
-396 -23 -196 -31 -422 -18 -490 35 -183 125 -283 297 -331 l60 -16 -60 -17
c-167 -49 -260 -145 -294 -304 -17 -83 -13 -278 10 -496 18 -164 20 -213 12
-278 -20 -152 -88 -215 -242 -225 l-81 -6 0 -175 0 -175 168 6 c109 3 188 11
227 21 200 55 321 171 371 356 24 91 23 277 -5 535 -15 132 -22 248 -19 316 3
97 6 110 33 154 38 61 106 100 200 115 38 6 71 12 72 14 2 2 6 73 10 158 l6
155 -77 12 c-78 11 -158 44 -188 78 -9 10 -26 39 -37 63 -28 61 -27 190 0 442
12 106 22 256 22 333 0 125 -3 149 -26 220 -81 244 -275 355 -624 355 l-133 0
0 -180z"/>
<path d="M1700 3063 c-76 -5 -244 -24 -267 -30 l-23 -5 0 -988 c0 -849 2 -989
14 -993 42 -16 330 -29 539 -24 312 7 477 37 637 115 92 45 200 149 247 237
82 157 84 352 5 499 -54 101 -181 205 -289 237 -24 7 -43 15 -43 18 0 4 28 21
63 38 239 117 325 384 199 617 -76 139 -277 246 -522 276 -76 9 -447 11 -560
3z m548 -362 c94 -42 141 -124 128 -221 -20 -147 -159 -220 -418 -220 l-98 0
0 228 c0 126 3 232 7 236 5 4 80 6 168 4 142 -3 166 -6 213 -27z m-77 -785
c75 -16 131 -42 178 -82 95 -80 105 -254 21 -356 -39 -47 -136 -94 -220 -108
-71 -11 -249 -14 -274 -4 -14 5 -16 40 -16 285 l0 279 123 0 c67 0 152 -7 188
-14z"/>
<path d="M0 2020 l0 -980 605 0 605 0 0 980 0 980 -605 0 -605 0 0 -980z
m1040 505 l0 -105 -460 0 -460 0 0 98 c0 54 3 102 7 105 3 4 210 7 460 7 l453
0 0 -105z m0 -300 l0 -105 -457 2 -458 3 -3 103 -3 102 461 0 460 0 0 -105z
m-290 -330 l0 -105 -292 2 -293 3 -3 103 -3 102 296 0 295 0 0 -105z m290
-370 l0 -105 -460 0 -460 0 0 98 c0 54 3 102 7 105 3 4 210 7 460 7 l453 0 0
-105z"/>
<path d="M8630 2754 c-84 -16 -184 -50 -254 -86 -63 -32 -102 -63 -177 -138
-84 -84 -102 -108 -148 -200 -72 -148 -92 -232 -98 -417 -6 -171 3 -243 48
-378 79 -238 251 -413 478 -486 172 -56 388 -52 569 10 116 40 184 84 277 176
112 113 168 214 217 393 18 65 21 106 22 262 1 164 -2 195 -23 270 -80 295
-265 493 -531 570 -57 17 -108 23 -215 25 -77 2 -151 1 -165 -1z m273 -332
c39 -17 75 -43 111 -83 101 -109 147 -248 147 -449 1 -290 -102 -491 -283
-556 -65 -23 -181 -20 -253 7 -116 43 -211 170 -252 335 -25 102 -23 324 5
425 78 289 295 422 525 321z"/>
<path d="M10497 2735 c-224 -39 -388 -124 -530 -275 -88 -93 -153 -212 -189
-345 -30 -111 -32 -385 -4 -488 82 -304 273 -496 570 -572 222 -56 550 -42
813 36 l73 22 0 448 0 449 -315 0 -315 0 0 -150 0 -150 130 0 130 0 0 -180 0
-180 -27 -7 c-16 -5 -86 -8 -158 -7 -116 0 -137 3 -198 27 -152 60 -237 150
-294 314 -23 68 -26 94 -27 203 0 187 44 310 149 409 103 98 228 141 410 141
129 0 213 -12 310 -45 39 -13 71 -22 71 -22 1 1 20 70 42 154 l40 152 -53 20
c-102 38 -195 52 -375 56 -121 3 -199 0 -253 -10z"/>
<path d="M5515 2730 c-44 -4 -104 -10 -132 -15 l-53 -7 0 -833 0 -833 68 -9
c37 -4 189 -8 337 -8 291 0 365 9 515 60 91 31 153 71 218 139 91 96 127 199
120 337 -10 165 -97 290 -250 359 l-75 34 48 23 c270 135 297 483 50 647 -78
52 -185 90 -294 105 -86 12 -424 12 -552 1z m516 -297 c60 -27 96 -67 107
-120 35 -160 -91 -253 -345 -253 l-83 0 0 194 c0 228 -18 206 160 202 91 -2
125 -7 161 -23z m-117 -653 c49 -6 110 -20 137 -31 96 -42 148 -132 134 -233
-7 -59 -23 -92 -62 -128 -63 -60 -207 -94 -344 -82 l-69 7 0 238 0 239 58 0
c31 0 97 -5 146 -10z"/>
<path d="M6850 1885 l0 -845 525 0 525 0 0 160 0 160 -335 0 -335 0 0 685 0
685 -190 0 -190 0 0 -845z"/>
<path d="M11530 1885 l0 -845 190 0 190 0 0 845 0 845 -190 0 -190 0 0 -845z"/>
<path d="M12240 1885 l0 -845 190 0 190 0 0 340 0 340 305 0 305 0 0 155 0
155 -305 0 -305 0 0 195 0 195 325 0 325 0 0 155 0 155 -515 0 -515 0 0 -845z"/>
<path d="M13420 2725 c0 -2 119 -228 265 -501 l265 -496 0 -344 0 -344 190 0
190 0 0 350 0 351 270 479 c149 264 273 486 276 495 5 13 -20 15 -208 15
l-214 0 -74 -177 c-40 -98 -106 -258 -145 -356 -40 -98 -75 -180 -77 -182 -3
-3 -24 43 -47 102 -23 60 -90 222 -149 361 l-107 252 -217 0 c-120 0 -218 -2
-218 -5z"/>
</g>
</svg>
